#N canvas 745 149 937 570 10;
#X obj 65 159 adc~;
#X obj 478 201 udpsend;
#X msg 602 101 disconnect;
#X obj 257 471 print;
#X obj 549 160 packOSC;
#X floatatom 125 221 5 10 100 0 - - -, f 5;
#X obj 69 204 dac~;
#X obj 141 399 pack i i i i;
#N canvas 1229 736 450 300 eee 0;
#X obj 160 12 inlet;
#X obj 91 230 outlet;
#X floatatom 105 119 5 0 0 0 - - -, f 5;
#X floatatom 118 97 5 0 0 0 - - -, f 5;
#X obj 33 69 cyclone/peakamp~ 100;
#X obj 59 42 cyclone/peakamp~ 100;
#X floatatom 39 131 5 0 0 0 - - -, f 5;
#X floatatom 41 181 5 0 0 0 - - -, f 5;
#X obj 40 157 i;
#X obj 107 152 +;
#X obj 15 9 inlet~;
#X obj 60 10 inlet~;
#X obj 39 108 * 200;
#X connect 0 0 5 1;
#X connect 0 0 4 1;
#X connect 2 0 9 0;
#X connect 3 0 9 1;
#X connect 4 0 2 0;
#X connect 5 0 3 0;
#X connect 6 0 8 0;
#X connect 7 0 1 0;
#X connect 8 0 7 0;
#X connect 9 0 12 0;
#X connect 10 0 4 0;
#X connect 11 0 5 0;
#X connect 12 0 6 0;
#X restore 43 318 pd eee;
#X msg 550 130 send /peak \$1 \$2 \$3 \$4;
#N canvas 1229 736 450 300 eee 0;
#X obj 160 12 inlet;
#X obj 91 230 outlet;
#X floatatom 105 119 5 0 0 0 - - -, f 5;
#X floatatom 118 97 5 0 0 0 - - -, f 5;
#X obj 33 69 cyclone/peakamp~ 100;
#X obj 59 42 cyclone/peakamp~ 100;
#X floatatom 39 131 5 0 0 0 - - -, f 5;
#X floatatom 41 181 5 0 0 0 - - -, f 5;
#X obj 40 157 i;
#X obj 107 152 +;
#X obj 39 108 * 200;
#X obj 15 9 inlet~;
#X obj 60 10 inlet~;
#X connect 0 0 5 1;
#X connect 0 0 4 1;
#X connect 2 0 9 0;
#X connect 3 0 9 1;
#X connect 4 0 2 0;
#X connect 5 0 3 0;
#X connect 6 0 8 0;
#X connect 7 0 1 0;
#X connect 8 0 7 0;
#X connect 9 0 10 0;
#X connect 10 0 6 0;
#X connect 11 0 4 0;
#X connect 12 0 5 0;
#X restore 115 313 pd eee;
#X obj 147 271 lop~;
#X obj 112 271 lop~;
#X floatatom 172 223 5 0 0 0 - - -, f 5;
#N canvas 1229 736 450 300 eee 0;
#X obj 160 12 inlet;
#X obj 91 230 outlet;
#X floatatom 105 119 5 0 0 0 - - -, f 5;
#X floatatom 118 97 5 0 0 0 - - -, f 5;
#X obj 33 69 cyclone/peakamp~ 100;
#X obj 59 42 cyclone/peakamp~ 100;
#X floatatom 39 131 5 0 0 0 - - -, f 5;
#X floatatom 41 181 5 0 0 0 - - -, f 5;
#X obj 40 157 i;
#X obj 107 152 +;
#X obj 39 108 * 200;
#X obj 15 9 inlet~;
#X obj 60 10 inlet~;
#X connect 0 0 5 1;
#X connect 0 0 4 1;
#X connect 2 0 9 0;
#X connect 3 0 9 1;
#X connect 4 0 2 0;
#X connect 5 0 3 0;
#X connect 6 0 8 0;
#X connect 7 0 1 0;
#X connect 8 0 7 0;
#X connect 9 0 10 0;
#X connect 10 0 6 0;
#X connect 11 0 4 0;
#X connect 12 0 5 0;
#X restore 211 311 pd eee;
#X floatatom 219 224 5 0 0 0 - - -, f 5;
#X obj 193 270 bp~, f 8;
#X obj 249 269 bp~, f 7;
#X floatatom 264 222 5 1 20 0 - - -, f 5;
#N canvas 1229 736 450 300 eee 0;
#X obj 160 12 inlet;
#X obj 91 230 outlet;
#X floatatom 105 119 5 0 0 0 - - -, f 5;
#X floatatom 118 97 5 0 0 0 - - -, f 5;
#X obj 33 69 cyclone/peakamp~ 100;
#X obj 59 42 cyclone/peakamp~ 100;
#X floatatom 39 131 5 0 0 0 - - -, f 5;
#X floatatom 41 181 5 0 0 0 - - -, f 5;
#X obj 40 157 i;
#X obj 107 152 +;
#X obj 39 108 * 200;
#X obj 15 9 inlet~;
#X obj 60 10 inlet~;
#X connect 0 0 5 1;
#X connect 0 0 4 1;
#X connect 2 0 9 0;
#X connect 3 0 9 1;
#X connect 4 0 2 0;
#X connect 5 0 3 0;
#X connect 6 0 8 0;
#X connect 7 0 1 0;
#X connect 8 0 7 0;
#X connect 9 0 10 0;
#X connect 10 0 6 0;
#X connect 11 0 4 0;
#X connect 12 0 5 0;
#X restore 325 307 pd eee;
#X floatatom 352 220 5 0 0 0 - - -, f 5;
#X obj 315 269 hip~, f 8;
#X obj 371 269 hip~, f 7;
#X msg 522 77 connect 127.0.0.1 56567;
#X obj 103 19 loadbang;
#X msg 180 146 300;
#X msg 514 358 send /settings/dc_sub \$1;
#X floatatom 536 331 5 0 0 0 - - -, f 5;
#X msg 537 304 3;
#X msg 322 151 3000;
#X msg 280 150 6;
#X msg 233 149 1800;
#X floatatom 508 452 5 0 1 0 - - -, f 5;
#X msg 511 422 0;
#X msg 485 475 send /settings/fx_timeline/direction \$1;
#X msg 115 150 50, f 4;
#X obj 522 51 cyclone/bangbang 2;
#X obj 502 53 bng 15 250 50 0 empty empty empty 17 7 0 10 -262144 -1
-1;
#X obj 743 66 udpreceive 56565;
#X obj 743 88 unpackOSC;
#X obj 742 135 route /alive;
#X obj 762 257 i;
#X msg 727 235 0;
#X obj 800 256 + 1;
#X obj 747 313 > 3;
#X obj 747 368 cyclone/gate;
#X obj 747 342 tgl 15 0 empty empty empty 17 7 0 10 -262144 -1 -1 0
1;
#X obj 748 394 bng 30 250 50 0 empty empty empty 17 7 0 10 -262144
-1 -1;
#X msg 11 73 \; pd dsp \$1;
#X msg 23 50 1;
#X msg 14 19 0;
#X msg 762 232 bang;
#X obj 555 195 bng 15 250 50 0 empty empty empty 17 7 0 10 -262144
-1 -1;
#X connect 0 0 6 0;
#X connect 0 0 8 0;
#X connect 0 0 12 0;
#X connect 0 0 11 0;
#X connect 0 0 16 0;
#X connect 0 0 17 0;
#X connect 0 0 21 0;
#X connect 0 0 22 0;
#X connect 0 1 6 1;
#X connect 0 1 8 1;
#X connect 2 0 1 0;
#X connect 4 0 1 0;
#X connect 4 0 51 0;
#X connect 4 0 52 0;
#X connect 5 0 8 2;
#X connect 5 0 10 2;
#X connect 5 0 14 2;
#X connect 5 0 19 2;
#X connect 7 0 9 0;
#X connect 8 0 7 0;
#X connect 9 0 3 0;
#X connect 9 0 4 0;
#X connect 10 0 7 1;
#X connect 11 0 10 1;
#X connect 12 0 10 0;
#X connect 13 0 12 1;
#X connect 13 0 11 1;
#X connect 14 0 7 2;
#X connect 15 0 16 1;
#X connect 15 0 17 1;
#X connect 16 0 14 0;
#X connect 17 0 14 1;
#X connect 18 0 16 2;
#X connect 18 0 17 2;
#X connect 19 0 7 3;
#X connect 20 0 21 1;
#X connect 20 0 22 1;
#X connect 21 0 19 0;
#X connect 22 0 19 1;
#X connect 23 0 1 0;
#X connect 24 0 35 0;
#X connect 24 0 25 0;
#X connect 24 0 29 0;
#X connect 24 0 31 0;
#X connect 24 0 30 0;
#X connect 24 0 28 0;
#X connect 24 0 33 0;
#X connect 24 0 42 0;
#X connect 24 0 49 0;
#X connect 25 0 13 0;
#X connect 26 0 4 0;
#X connect 26 0 3 0;
#X connect 27 0 26 0;
#X connect 28 0 27 0;
#X connect 29 0 20 0;
#X connect 30 0 18 0;
#X connect 31 0 15 0;
#X connect 32 0 34 0;
#X connect 33 0 32 0;
#X connect 34 0 4 0;
#X connect 35 0 5 0;
#X connect 36 0 23 0;
#X connect 36 1 2 0;
#X connect 37 0 36 0;
#X connect 38 0 39 0;
#X connect 39 0 40 0;
#X connect 40 0 42 0;
#X connect 41 0 43 0;
#X connect 41 0 44 0;
#X connect 42 0 41 0;
#X connect 43 0 41 1;
#X connect 44 0 46 0;
#X connect 44 0 45 1;
#X connect 45 0 47 0;
#X connect 46 0 45 0;
#X connect 47 0 42 0;
#X connect 47 0 37 0;
#X connect 49 0 48 0;
#X connect 50 0 48 0;
#X connect 51 0 41 0;
