#N canvas 727 222 937 570 10;
#X obj 65 159 adc~;
#X obj 521 189 udpsend;
#X msg 538 100 disconnect;
#X obj 606 160 print;
#X obj 549 160 packOSC;
#X msg 529 74 connect 172.30.35.74 9997;
#X floatatom 111 134 5 10 100 0 - - -, f 5;
#X msg 513 46 connect 192.168.1.133 9997;
#X obj 69 204 dac~;
#X obj 69 463 pack i i i i;
#N canvas 1229 736 450 300 eee 0;
#X obj 160 12 inlet;
#X obj 91 230 outlet;
#X floatatom 105 119 5 0 0 0 - - -, f 5;
#X floatatom 118 97 5 0 0 0 - - -, f 5;
#X obj 33 69 cyclone/peakamp~ 100;
#X obj 59 42 cyclone/peakamp~ 100;
#X floatatom 39 131 5 0 0 0 - - -, f 5;
#X floatatom 41 181 5 0 0 0 - - -, f 5;
#X obj 40 157 i;
#X obj 107 152 +;
#X obj 15 9 inlet~;
#X obj 60 10 inlet~;
#X obj 39 108 * 200;
#X connect 0 0 5 1;
#X connect 0 0 4 1;
#X connect 2 0 9 0;
#X connect 3 0 9 1;
#X connect 4 0 2 0;
#X connect 5 0 3 0;
#X connect 6 0 8 0;
#X connect 7 0 1 0;
#X connect 8 0 7 0;
#X connect 9 0 12 0;
#X connect 10 0 4 0;
#X connect 11 0 5 0;
#X connect 12 0 6 0;
#X restore 43 318 pd eee;
#X msg 550 130 send /peak \$1 \$2 \$3 \$4;
#N canvas 1229 736 450 300 eee 0;
#X obj 160 12 inlet;
#X obj 91 230 outlet;
#X floatatom 105 119 5 0 0 0 - - -, f 5;
#X floatatom 118 97 5 0 0 0 - - -, f 5;
#X obj 33 69 cyclone/peakamp~ 100;
#X obj 59 42 cyclone/peakamp~ 100;
#X floatatom 39 131 5 0 0 0 - - -, f 5;
#X floatatom 41 181 5 0 0 0 - - -, f 5;
#X obj 40 157 i;
#X obj 107 152 +;
#X obj 39 108 * 200;
#X obj 15 9 inlet~;
#X obj 60 10 inlet~;
#X connect 0 0 5 1;
#X connect 0 0 4 1;
#X connect 2 0 9 0;
#X connect 3 0 9 1;
#X connect 4 0 2 0;
#X connect 5 0 3 0;
#X connect 6 0 8 0;
#X connect 7 0 1 0;
#X connect 8 0 7 0;
#X connect 9 0 10 0;
#X connect 10 0 6 0;
#X connect 11 0 4 0;
#X connect 12 0 5 0;
#X restore 103 318 pd eee;
#X obj 155 277 lop~;
#X obj 119 275 lop~;
#X floatatom 175 141 5 0 0 0 - - -, f 5;
#N canvas 1229 736 450 300 eee 0;
#X obj 160 12 inlet;
#X obj 91 230 outlet;
#X floatatom 105 119 5 0 0 0 - - -, f 5;
#X floatatom 118 97 5 0 0 0 - - -, f 5;
#X obj 33 69 cyclone/peakamp~ 100;
#X obj 59 42 cyclone/peakamp~ 100;
#X floatatom 39 131 5 0 0 0 - - -, f 5;
#X floatatom 41 181 5 0 0 0 - - -, f 5;
#X obj 40 157 i;
#X obj 107 152 +;
#X obj 39 108 * 200;
#X obj 15 9 inlet~;
#X obj 60 10 inlet~;
#X connect 0 0 5 1;
#X connect 0 0 4 1;
#X connect 2 0 9 0;
#X connect 3 0 9 1;
#X connect 4 0 2 0;
#X connect 5 0 3 0;
#X connect 6 0 8 0;
#X connect 7 0 1 0;
#X connect 8 0 7 0;
#X connect 9 0 10 0;
#X connect 10 0 6 0;
#X connect 11 0 4 0;
#X connect 12 0 5 0;
#X restore 193 321 pd eee;
#X floatatom 224 181 5 0 0 0 - - -, f 5;
#X obj 209 278 bp~, f 8;
#X obj 282 281 bp~, f 7;
#X floatatom 269 179 5 1 20 0 - - -, f 5;
#N canvas 1229 736 450 300 eee 0;
#X obj 160 12 inlet;
#X obj 91 230 outlet;
#X floatatom 105 119 5 0 0 0 - - -, f 5;
#X floatatom 118 97 5 0 0 0 - - -, f 5;
#X obj 33 69 cyclone/peakamp~ 100;
#X obj 59 42 cyclone/peakamp~ 100;
#X floatatom 39 131 5 0 0 0 - - -, f 5;
#X floatatom 41 181 5 0 0 0 - - -, f 5;
#X obj 40 157 i;
#X obj 107 152 +;
#X obj 39 108 * 200;
#X obj 15 9 inlet~;
#X obj 60 10 inlet~;
#X connect 0 0 5 1;
#X connect 0 0 4 1;
#X connect 2 0 9 0;
#X connect 3 0 9 1;
#X connect 4 0 2 0;
#X connect 5 0 3 0;
#X connect 6 0 8 0;
#X connect 7 0 1 0;
#X connect 8 0 7 0;
#X connect 9 0 10 0;
#X connect 10 0 6 0;
#X connect 11 0 4 0;
#X connect 12 0 5 0;
#X restore 324 322 pd eee;
#X floatatom 367 177 5 0 0 0 - - -, f 5;
#X obj 340 279 hip~, f 8;
#X obj 413 282 hip~, f 7;
#X msg 501 19 connect 127.0.0.1 56567;
#X obj 100 31 loadbang;
#X msg 174 105 300;
#X floatatom 228 144 5 0 0 0 - - -, f 5;
#X msg 514 358 send /settings/dc_sub \$1;
#X floatatom 578 312 5 0 0 0 - - -, f 5;
#X msg 581 281 3;
#X msg 363 131 3000;
#X msg 272 145 6;
#X msg 227 108 1800;
#X floatatom 549 428 5 0 1 0 - - -, f 5;
#X msg 552 398 0;
#X msg 485 475 send /settings/fx_timeline/direction \$1;
#X obj 416 33 vsl 15 200 300 5000 0 0 empty empty empty 0 -9 0 10 -262144
-1 -1 11500 1;
#X obj 447 22 bng 15 250 50 0 empty empty empty 17 7 0 10 -262144 -1
-1;
#X obj 442 48 bangbang 2;
#X msg 109 109 50, f 4;
#X connect 0 0 8 0;
#X connect 0 0 10 0;
#X connect 0 0 14 0;
#X connect 0 0 13 0;
#X connect 0 0 18 0;
#X connect 0 0 19 0;
#X connect 0 0 23 0;
#X connect 0 0 24 0;
#X connect 0 1 8 1;
#X connect 0 1 10 1;
#X connect 2 0 1 0;
#X connect 4 0 1 0;
#X connect 5 0 1 0;
#X connect 6 0 10 2;
#X connect 6 0 12 2;
#X connect 6 0 16 2;
#X connect 6 0 21 2;
#X connect 7 0 1 0;
#X connect 9 0 11 0;
#X connect 10 0 9 0;
#X connect 11 0 3 0;
#X connect 11 0 4 0;
#X connect 12 0 9 1;
#X connect 13 0 12 1;
#X connect 14 0 12 0;
#X connect 15 0 14 1;
#X connect 15 0 13 1;
#X connect 16 0 9 2;
#X connect 17 0 18 1;
#X connect 17 0 19 1;
#X connect 18 0 16 0;
#X connect 19 0 16 1;
#X connect 20 0 18 2;
#X connect 20 0 19 2;
#X connect 21 0 9 3;
#X connect 22 0 23 1;
#X connect 22 0 24 1;
#X connect 23 0 21 0;
#X connect 24 0 21 1;
#X connect 25 0 1 0;
#X connect 26 0 41 0;
#X connect 26 0 27 0;
#X connect 26 0 32 0;
#X connect 26 0 34 0;
#X connect 26 0 33 0;
#X connect 26 0 31 0;
#X connect 26 0 36 0;
#X connect 27 0 15 0;
#X connect 28 0 17 0;
#X connect 29 0 4 0;
#X connect 29 0 3 0;
#X connect 30 0 29 0;
#X connect 31 0 30 0;
#X connect 32 0 22 0;
#X connect 33 0 20 0;
#X connect 34 0 28 0;
#X connect 35 0 37 0;
#X connect 36 0 35 0;
#X connect 37 0 4 0;
#X connect 38 0 22 0;
#X connect 39 0 40 0;
#X connect 41 0 6 0;
